<?xml version="1.0" encoding="utf-8"?>
<!-- Generator: Adobe Adobe Illustrator 24.2.0, SVG Export Plug-In . SVG Version: 6.00 Build 0)  -->
<svg version="1.1" xmlns="http://www.w3.org/2000/svg" xmlns:xlink="http://www.w3.org/1999/xlink" x="0px" y="0px"
	 viewBox="0 0 1728 1296" style="enable-background:new 0 0 1728 1296;" xml:space="preserve">
<style type="text/css">
	.st0{fill:#FBFF8F;}
	.st1{fill:#F6AD55;}
	.st2{fill:#FFFFFF;}
	.st3{fill:none;stroke:#FFFFFF;stroke-miterlimit:10;}
	.st4{fill:#FEEBC8;}
	.st5{display:none;fill:#FFFFFF;}
</style>
<g id="レイヤー_3">
	<polygon class="st0" points="636.08,393.71 519.09,397.85 574.63,469.34 	"/>
</g>
<g id="レイヤー_2">
	<path class="st1" d="M0,282.95c0,143.97,0,565.9,0,565.9l491.66,285v-570"/>
	<polyline class="st2" points="491.66,565.9 363.19,491.97 0,282.95 489.6,0 981.26,280.9 	"/>
	<path class="st3" d="M491.66,1133.86V2.05V1133.86z"/>
	<polygon class="st4" points="493.71,561.8 493.71,664.75 493.71,1131.81 981.26,850.91 981.26,278.85 597.71,501.45 	"/>
	<ellipse class="st2" cx="403.2" cy="981.11" rx="24.69" ry="42.03"/>
	<ellipse class="st2" cx="281.83" cy="928.82" rx="8.23" ry="16.4"/>
	<ellipse class="st2" cx="333.26" cy="949.32" rx="16.46" ry="28.71"/>
	<polygon class="st5" points="491.66,699.18 347.66,483.89 598.63,475.69 	"/>
</g>
<g id="レイヤー_4">
</g>
</svg>
