<?xml version="1.0" encoding="utf-8"?>
<!-- Generator: Adobe Adobe Illustrator 24.2.0, SVG Export Plug-In . SVG Version: 6.00 Build 0)  -->
<svg version="1.1" xmlns="http://www.w3.org/2000/svg" xmlns:xlink="http://www.w3.org/1999/xlink" x="0px" y="0px" width="1728px"
	 height="1296px" viewBox="0 0 1728 1296" style="enable-background:new 0 0 1728 1296;" xml:space="preserve">
<style type="text/css">
	.st0{fill:url(#SVGID_1_);}
	.st1{fill:#FFFFFF;}
	.st2{font-family:'AppleMyungjo';}
	.st3{font-size:1000.1935px;}
	.st4{letter-spacing:10.23;}
	.st5{fill:#FFFCFC;}
</style>
<g id="レイヤー_5">
</g>
<g id="レイヤー_1">
	<linearGradient id="SVGID_1_" gradientUnits="userSpaceOnUse" x1="791.5252" y1="-105.9874" x2="1004.4794" y2="1130.7242">
		<stop  offset="0" style="stop-color:#FFEE8F"/>
		<stop  offset="1" style="stop-color:#FFAE00"/>
	</linearGradient>
	<path class="st0" d="M1353.11,188.04c-26.65,9.12-53.75,16.69-81.16,22.6c-22.02,7.36-44.56,13.07-67.33,16.71
		c-25.42,4.06-51.66,5.83-77.36,4.64c-28.69-1.33-56.99-7.03-84.85-13.84c-52.18-12.74-102.29-32.74-152.94-50.51
		c-25.92-9.1-52.04-17.69-78.63-24.49c-1.46-0.37-5.51-0.76-6.63-1.62c-1.63-0.36-3.26-0.72-4.9-1.07
		c-5.3-1.11-10.61-2.15-15.93-3.11c-11.04-1.99-22.13-3.65-33.26-4.98c-22.68-2.72-45.52-4.1-68.35-4.17
		c-5.81-0.02-11.63,0.05-17.44,0.2c-1.06,0.03-3.39,0.22-4.76,0.35c-1.64,0.16-1.18,0.11,0,0c0.71-0.07,1.8-0.17,3.41-0.33
		c-2.69,0.26-5.44,0.26-8.14,0.41c-11.24,0.64-22.46,1.59-33.65,2.85c-22.39,2.53-44.65,6.29-66.65,11.25
		c-11,2.48-21.94,5.27-32.8,8.36c-5.61,1.6-11.16,3.44-16.78,5.03c10.44-2.95,0.11,0-2.1,0.74c-2.21,0.74-4.42,1.5-6.63,2.27
		c-42.94,14.99-84.29,34.8-122.88,59.24c-1.09,0.69-3.45,2.98-4.82,3.13c-1.28,0.86-2.57,1.71-3.85,2.58
		c-4.51,3.08-8.98,6.22-13.4,9.43c-3.56,2.58-7.08,5.22-10.58,7.89c-53.18,96.46-83.53,207.84-83.53,326.49v0
		c0,367.55,291.19,665.5,650.4,665.5h0c359.21,0,650.4-297.96,650.4-665.5v0c0-153.68-50.94-295.17-136.44-407.82
		C1399.2,170.79,1376.34,180.09,1353.11,188.04z"/>
	<g id="レイヤー_2">
		<text transform="matrix(0.9773 0 0 1 771.0732 981.5361)" class="st1 st2 st3 st4">t</text>
	</g>
</g>
<g id="レイヤー_6">
	<circle class="st5" cx="746.68" cy="368" r="63.78"/>
</g>
</svg>
