<svg width="589" height="604" viewBox="0 0 589 604" fill="none" xmlns="http://www.w3.org/2000/svg">
<path d="M148 255.5C148 269.583 136.583 281 122.5 281C108.417 281 97 269.583 97 255.5C97 241.417 108.417 230 122.5 230C136.583 230 148 241.417 148 255.5Z" fill="#FFADAD"/>
<path d="M358 206C358 213.732 351.732 220 344 220C336.268 220 330 213.732 330 206C330 198.268 336.268 192 344 192C351.732 192 358 198.268 358 206Z" fill="#FFADAD"/>
<path d="M188 129.5C188 143.583 176.583 155 162.5 155C148.417 155 137 143.583 137 129.5C137 115.417 148.417 104 162.5 104C176.583 104 188 115.417 188 129.5Z" fill="#FFAF65"/>
<path d="M265 31C265 48.1208 251.121 62 234 62C216.879 62 203 48.1208 203 31C203 13.8792 216.879 0 234 0C251.121 0 265 13.8792 265 31Z" fill="#FF56DA"/>
<path d="M153 483C153 500.121 139.121 514 122 514C104.879 514 91 500.121 91 483C91 465.879 104.879 452 122 452C139.121 452 153 465.879 153 483Z" fill="#FF8D8D"/>
<path d="M437 45C437 62.1208 423.121 76 406 76C388.879 76 375 62.1208 375 45C375 27.8792 388.879 14 406 14C423.121 14 437 27.8792 437 45Z" fill="#FF6287"/>
<path d="M255 573C255 590.121 241.121 604 224 604C206.879 604 193 590.121 193 573C193 555.879 206.879 542 224 542C241.121 542 255 555.879 255 573Z" fill="#FF6287"/>
<path d="M547 483C547 500.121 533.121 514 516 514C498.879 514 485 500.121 485 483C485 465.879 498.879 452 516 452C533.121 452 547 465.879 547 483Z" fill="#FF7878"/>
<path d="M234 261.5C234 271.165 226.165 279 216.5 279C206.835 279 199 271.165 199 261.5C199 251.835 206.835 244 216.5 244C226.165 244 234 251.835 234 261.5Z" fill="#FF7878"/>
<path d="M251.809 349.532C258.296 351.483 261.973 358.323 260.022 364.809C258.071 371.296 251.232 374.973 244.745 373.022C238.258 371.071 234.581 364.232 236.532 357.745C238.483 351.258 245.323 347.581 251.809 349.532Z" fill="#FFC672"/>
<path d="M299.691 411.178C312.027 412.933 320.604 424.356 318.849 436.691C317.094 449.027 305.671 457.604 293.335 455.849C281 454.094 272.423 442.671 274.178 430.335C275.933 418 287.356 409.423 299.691 411.178Z" fill="#FFADDE"/>
<path d="M299.691 411.178C312.027 412.933 320.604 424.356 318.849 436.691C317.094 449.027 305.671 457.604 293.335 455.849C281 454.094 272.423 442.671 274.178 430.335C275.933 418 287.356 409.423 299.691 411.178Z" fill="#FFADDE"/>
<path d="M299.691 411.178C312.027 412.933 320.604 424.356 318.849 436.691C317.094 449.027 305.671 457.604 293.335 455.849C281 454.094 272.423 442.671 274.178 430.335C275.933 418 287.356 409.423 299.691 411.178Z" fill="#FFADDE"/>
<path d="M338.901 152.389C331.356 143.659 332.318 130.465 341.048 122.92C349.779 115.376 362.973 116.337 370.517 125.068C378.062 133.799 377.1 146.993 368.37 154.537C359.639 162.082 346.445 161.12 338.901 152.389Z" fill="#FF6B4A"/>
<path d="M243.781 186.879C238.379 180.629 239.067 171.182 245.318 165.781C251.569 160.379 261.016 161.067 266.417 167.318C271.819 173.569 271.13 183.016 264.88 188.417C258.629 193.819 249.182 193.13 243.781 186.879Z" fill="#FF8B72"/>
<path d="M519.914 353.71C508.364 343.834 507.005 326.465 516.881 314.914C526.756 303.364 544.125 302.005 555.676 311.881C567.227 321.756 568.585 339.125 558.71 350.676C548.834 362.227 531.465 363.585 519.914 353.71Z" fill="#F44343"/>
<path d="M33.9145 372.71C22.3637 362.834 21.0055 345.465 30.8807 333.914C40.756 322.364 58.1252 321.005 69.6759 330.881C81.2267 340.756 82.5849 358.125 72.7097 369.676C62.8344 381.227 45.4652 382.585 33.9145 372.71Z" fill="#F44343"/>
<path d="M455.691 252.178C468.027 253.933 476.604 265.356 474.849 277.691C473.094 290.027 461.671 298.604 449.335 296.849C437 295.094 428.423 283.671 430.178 271.335C431.933 259 443.356 250.423 455.691 252.178Z" fill="#FFB951"/>
<path d="M364.151 317.13C366.996 310.983 374.286 308.306 380.433 311.151C386.58 313.996 389.257 321.286 386.412 327.433C383.567 333.58 376.278 336.257 370.13 333.412C363.983 330.567 361.306 323.278 364.151 317.13Z" fill="#FFC672"/>
<path d="M372.381 383.109C377.009 373.107 388.869 368.752 398.87 373.381C408.871 378.009 413.227 389.869 408.598 399.87C403.969 409.871 392.11 414.227 382.109 409.598C372.107 404.969 367.752 393.11 372.381 383.109Z" fill="#FF9472"/>
<path d="M539.545 200.751C523.78 191.649 518.143 171.898 526.955 156.636C535.767 141.373 555.691 136.378 571.455 145.48C587.22 154.582 592.857 174.333 584.045 189.596C575.233 204.859 555.309 209.853 539.545 200.751Z" fill="#FF7878"/>
<path d="M17.5446 189.751C1.77988 180.649 -3.85653 160.898 4.95537 145.635C13.7673 130.373 33.6906 125.378 49.4554 134.48C65.2201 143.582 70.8565 163.333 62.0446 178.596C53.2327 193.859 33.3094 198.853 17.5446 189.751Z" fill="#FF7575"/>
<path d="M187.658 365.84C195.378 376.798 192.753 391.939 181.795 399.658C170.838 407.378 155.697 404.753 147.978 393.795C140.258 382.838 142.883 367.697 153.84 359.978C164.798 352.258 179.939 354.883 187.658 365.84Z" fill="#FFC672"/>
<path d="M420.044 527.983C427.819 539.019 425.175 554.269 414.139 562.044C403.103 569.819 387.853 567.175 380.078 556.139C372.303 545.103 374.947 529.853 385.983 522.078C397.019 514.303 412.269 516.947 420.044 527.983Z" fill="#FF9472"/>
<path d="M333.809 263.532C340.296 265.483 343.973 272.323 342.022 278.809C340.071 285.296 333.232 288.973 326.745 287.022C320.258 285.071 316.581 278.232 318.532 271.745C320.483 265.258 327.323 261.581 333.809 263.532Z" fill="#FFF385"/>
<path d="M275.809 255.532C282.296 257.483 285.973 264.323 284.022 270.809C282.071 277.296 275.232 280.973 268.745 279.022C262.258 277.071 258.581 270.232 260.532 263.745C262.483 257.258 269.323 253.581 275.809 255.532Z" fill="#FFF385"/>
<path d="M298.182 320.663C303.072 322.134 305.845 327.291 304.374 332.182C302.903 337.072 297.746 339.845 292.855 338.374C287.965 336.903 285.192 331.746 286.663 326.855C288.134 321.965 293.291 319.192 298.182 320.663Z" fill="#FFF385"/>
<path d="M330.66 354.441C325.877 352.718 323.397 347.443 325.12 342.66C326.843 337.877 332.117 335.397 336.9 337.12C341.683 338.843 344.164 344.117 342.441 348.9C340.718 353.683 335.443 356.164 330.66 354.441Z" fill="#E6FFC7"/>
<path d="M267.578 313.752C265.198 318.245 259.627 319.958 255.135 317.578C250.642 315.198 248.929 309.627 251.309 305.135C253.689 300.642 259.26 298.929 263.752 301.309C268.245 303.689 269.958 309.26 267.578 313.752Z" fill="#E6FFC7"/>
<path d="M291.53 303.412C287.923 302.113 286.053 298.136 287.352 294.53C288.652 290.923 292.628 289.053 296.235 290.352C299.841 291.652 301.711 295.628 300.412 299.235C299.113 302.841 295.136 304.711 291.53 303.412Z" fill="#FFEA28"/>
</svg>
